<?xml version="1.0" encoding="UTF-8"?>
<!DOCTYPE svg PUBLIC "-//W3C//DTD SVG 1.1//EN" "http://www.w3.org/Graphics/SVG/1.1/DTD/svg11.dtd">
<!-- Creator: CorelDRAW X6 -->
<svg xmlns="http://www.w3.org/2000/svg" xml:space="preserve" width="210mm" height="297mm" version="1.1" style="shape-rendering:geometricPrecision; text-rendering:geometricPrecision; image-rendering:optimizeQuality; fill-rule:evenodd; clip-rule:evenodd"
viewBox="0 0 21000 29700"
 xmlns:xlink="http://www.w3.org/1999/xlink">
 <defs>
  <style type="text/css">
   <![CDATA[
    .fil0 {fill:black}
   ]]>
  </style>
 </defs>
 <g id="Layer_x0020_1">
  <metadata id="CorelCorpID_0Corel-Layer"/>
  <path class="fil0" d="M5980 10651l1571 -1435c315,-555 481,-1201 403,-1856 -91,-1538 -1233,-2146 -3449,-2726 -242,29 -473,86 -693,166 0,0 1381,1090 1712,1351 373,504 -1077,2660 -1944,2490l-1770 -1397c-44,278 -51,567 -16,861 797,1465 1995,2829 3449,2726 248,-18 496,-81 737,-181zm5294 6387l3228 4281 0 0c541,309 1295,-116 1065,-697 171,497 -561,946 -975,642l-3248 -4308 1054 -1234 3884 5216c943,-111 1864,679 1986,1685 127,1049 -617,1995 -1656,2121 -1039,126 -1982,-620 -2107,-1665 -36,-305 -5,-598 98,-862l-3610 -4850 281 -329zm-1974 -2619l-248 343 -3072 -4111 1571 -1435 2796 3754 -983 1360 -2961 -3927 -97 44 2994 3971m6947 7265l299 43 299 43 238 188 238 188 112 282 112 282 -43 301 -43 301 -187 239 -187 239 -281 113 -281 113 -299 -43 -299 -43 -238 -188 -238 -188 -112 -282 -112 -282 43 -301 43 -301 187 -239 187 -239 281 -113 281 -113zm2232 -16289c778,611 1194,1379 930,1715 -264,336 -1109,114 -1886,-497 -778,-611 -1194,-1379 -930,-1715 264,-336 1109,-114 1886,497zm124 -157c933,733 1390,1709 1020,2179 -370,471 -1426,258 -2359,-475 -933,-733 -1390,-1709 -1020,-2179 370,-471 1426,-258 2359,475zm-2592 -178c-222,1316 2162,3214 3372,2649l-4328 5092c-1273,227 -2898,-1068 -2946,-2314 1323,-1791 2579,-3635 3902,-5427zm-4058 5824c399,1281 1406,2029 2675,2102l-3850 4505c-873,164 -2120,-862 -2258,-1781 1024,-1393 2409,-3432 3433,-4825zm-3514 5112c420,970 1114,1481 2094,1645l-3248 3765c-703,39 -1609,-622 -1716,-1354 859,-1168 2010,-2888 2869,-4057zm-2950 4301c277,752 819,1153 1573,1236l-2403 2761c-554,96 -1217,-461 -1291,-1019 633,-860 1489,-2119 2121,-2979zm-689 3961c18,82 -83,278 -144,355 -704,447 -1910,-578 -1570,-1272 64,-82 216,-212 301,-213l-102 149c33,615 810,1282 1396,1112l119 -130zm14343 -17738c-2285,-2309 -2721,-1112 -882,248 -635,-206 -1772,-1092 -1448,-1753 787,-433 2150,975 2330,1505z"/>
 </g>
</svg>
