<?xml version="1.0" encoding="UTF-8"?>
<!DOCTYPE svg PUBLIC "-//W3C//DTD SVG 1.1//EN" "http://www.w3.org/Graphics/SVG/1.1/DTD/svg11.dtd">
<!-- Creator: CorelDRAW X6 -->
<svg xmlns="http://www.w3.org/2000/svg" xml:space="preserve" width="100mm" height="100mm" version="1.1" style="shape-rendering:geometricPrecision; text-rendering:geometricPrecision; image-rendering:optimizeQuality; fill-rule:evenodd; clip-rule:evenodd"
viewBox="0 0 10000 10000"
 xmlns:xlink="http://www.w3.org/1999/xlink">
 <defs>
  <style type="text/css">
   <![CDATA[
    .fil0 {fill:black}
   ]]>
  </style>
 </defs>
 <g id="Layer_x0020_1">
  <metadata id="CorelCorpID_0Corel-Layer"/>
  <path class="fil0" d="M2470 1111l5829 535c847,109 1089,886 1237,1915l-1552 -26 2 -99c-310,-194 -1073,-231 -1454,-52l1 127 -2707 -45c-111,-1190 -687,-2112 -1356,-2355zm-1541 2563l2225 -95 0 4520 -2213 -595 -12 -3830zm3551 -113l2049 36 1 287 418 79c0,434 -3,868 -3,1303l729 -36c2,-425 4,-849 13,-1275l293 -63 1 -266 1067 19 0 3920 -4569 589 0 -4592zm-4015 119l393 -18 0 3955 -393 -113 0 -3824zm9065 -30l-381 0 0 3997 381 -59 0 -3937zm-6299 -86l529 -30 616 6 6 4782 -604 89 -541 -167 -6 -4681zm538 -65l-3293 133c13,-3238 2759,-3463 3293,-133zm776 3168c1371,-146 3387,-286 4440,-381 -1358,205 -2940,305 -4440,381zm2727 -2004l179 -6 -43 -133c9,-28 158,-306 -37,-320 -238,34 -67,268 -60,309l-39 150zm-263 540l623 -39 -5 -1253 305 -69 -3 -363c-107,-142 -967,-207 -1335,-75l1 409 412 78 1 1312zm-2489 -91c695,-71 1552,-120 2361,-153l1 67c-765,31 -1569,54 -2362,86zm3206 -177c513,-16 977,-29 1247,-37 -374,36 -820,70 -1246,93l-1 -56zm-4580 1723c-613,-149 -1580,-301 -2107,-380 1058,253 1080,228 2107,380zm-4 -1562c-1113,-65 -1461,-87 -2179,-95 1010,110 961,61 2179,95z"/>
 </g>
</svg>
