<?xml version="1.0" encoding="UTF-8"?>
<!DOCTYPE svg PUBLIC "-//W3C//DTD SVG 1.1//EN" "http://www.w3.org/Graphics/SVG/1.1/DTD/svg11.dtd">
<!-- Creator: CorelDRAW X6 -->
<svg xmlns="http://www.w3.org/2000/svg" xml:space="preserve" width="100mm" height="100mm" version="1.1" style="shape-rendering:geometricPrecision; text-rendering:geometricPrecision; image-rendering:optimizeQuality; fill-rule:evenodd; clip-rule:evenodd"
viewBox="0 0 10000 10000"
 xmlns:xlink="http://www.w3.org/1999/xlink">
 <defs>
  <style type="text/css">
   <![CDATA[
    .fil0 {fill:black}
   ]]>
  </style>
 </defs>
 <g id="Layer_x0020_1">
  <metadata id="CorelCorpID_0Corel-Layer"/>
  <path class="fil0" d="M3073 737l35 -12 1473 2459 -76 -9 -1432 -2439zm1409 -100l3193 241c-163,18 -273,43 -552,129l-4038 -311 1397 -59zm3379 1778l-630 -1404c1896,-719 2959,2241 1283,3043l-653 -1639zm-6466 1855l3299 1100 0 2926 -3299 -1651 0 -2376zm-423 -176l376 124 0 2460 -376 -195 0 -2389zm7539 -56l-211 89 0 2413 211 -136 0 -2366zm-3754 1336l475 153 464 -217 0 3057 -417 300 -522 -270 0 -3022zm-3481 -1280l3944 1338 2993 -1350 -3757 -834 -3181 845zm4508 1203l2471 -1121 0 2360 -2471 1690 0 -2929zm-2635 -4572l4027 387 1221 2923 -3792 -845 -1456 -2465zm-369 4704l85 275 285 70 -233 123 46 339 -225 -247 -264 107 120 -248 -177 -214 256 42 106 -246zm3211 -698c187,0 346,56 406,133l-581 254c-151,-32 -257,-103 -257,-185 0,-112 194,-203 433,-203zm-359 468c-45,-32 -72,-71 -73,-112l-2 -58c44,57 108,97 182,123l-107 47zm-510 -114c202,0 372,65 419,153 -120,51 -191,88 -311,139l-506 -169c66,-72 219,-123 398,-123zm328 -1116c224,84 373,237 333,342 -31,83 -173,111 -342,76 -20,-160 -281,-259 -443,-256 -29,-44 -39,-88 -25,-125 39,-105 253,-121 476,-37zm306 424l-21 62c-25,75 -146,105 -294,86l1 -103c133,21 261,11 314,-44zm-832 -254l15 -44c4,14 9,27 16,40 -10,0 -20,2 -30,3zm-2423 -241c239,0 432,91 432,203 0,112 -194,203 -432,203 -56,0 -109,-5 -158,-14l0 -5c2,-133 -154,-228 -258,-238 51,-85 218,-148 416,-148zm435 289l3 65c4,109 -189,201 -420,205l-179 -61 1 -54c242,42 542,-31 596,-155zm1331 -205c234,-49 442,1 465,111 5,26 0,54 -16,81 -88,34 -145,84 -196,162 -42,16 -30,14 -171,43 -141,29 -442,-1 -465,-111 -23,-110 149,-238 382,-286zm244 509c-41,15 9,9 -131,38 -140,29 -438,-2 -465,-110l-14 -57c148,127 415,103 611,21 -9,35 -9,73 -1,108zm1939 -48c235,0 426,88 432,197l-456 208c-114,-159 -402,-147 -389,-142 -13,-19 -20,-40 -20,-61 0,-112 194,-203 433,-203zm-3327 -109c239,0 433,91 433,203 0,83 -106,154 -259,186l-604 -206c22,-102 206,-182 430,-182zm436 289l2 65c1,38 -21,74 -60,104l-120 -41c88,-30 155,-75 178,-128zm1165 -1111c239,0 433,91 433,203 0,112 -194,203 -433,203 -239,0 -433,-91 -433,-203 0,-112 194,-203 433,-203zm436 289c1,28 6,71 -2,97 -46,0 -82,5 -123,27 -56,26 -88,75 -86,127 -44,10 -130,16 -179,18 -55,-68 -97,-78 -166,-106 236,31 505,-44 557,-163zm-672 140c-14,-3 -28,-4 -43,-4l0 0c-41,0 -79,-2 -120,9 -40,-45 -35,-81 -36,-136 48,63 121,105 204,131l-5 0zm-2627 113c239,0 432,91 432,203 0,38 -22,73 -60,103l-696 -238c79,-42 195,-68 324,-68zm435 289l1 39 -21 -7c8,-10 15,-21 20,-32zm2669 -172c239,0 433,117 433,261 0,144 -194,261 -433,261 -239,0 -433,-117 -433,-261 0,-144 194,-261 433,-261zm441 317l-1 80c-2,138 -199,253 -438,253 -239,0 -419,-113 -433,-250l-6 -60c149,368 869,258 878,-23zm728 -758c239,0 433,91 433,203 0,112 -194,203 -433,203 -239,0 -433,-91 -433,-203 0,-112 194,-203 433,-203zm436 289l2 65c4,112 -199,205 -438,205 -239,0 -429,-91 -433,-203l-2 -58c195,254 791,174 870,-9zm-3010 -464c239,0 433,91 433,203 0,112 -194,203 -433,203 -239,0 -433,-91 -433,-203 0,-112 194,-203 433,-203zm436 289l3 65c4,112 -199,205 -438,205 -239,0 -429,-91 -433,-203l-2 -58c195,254 791,174 870,-9zm3787 397l-624 273c-349,-167 413,-438 624,-273zm-705 307c-2,-20 -2,-43 -2,-64 14,18 30,35 48,50 -16,3 -32,7 -46,14zm-2626 351c229,0 417,84 432,189 -76,20 -152,57 -202,106l-594 -203c77,-56 211,-93 364,-93zm-818 -103c168,0 310,68 348,160l-411 -140c4,-6 8,-12 11,-18 17,-1 35,-2 52,-2zm786 -240c9,17 9,-25 9,41 0,66 -167,206 -374,206 -207,0 -374,-118 -374,-206 0,-89 79,-137 165,-159 111,133 436,179 575,118zm-743 -424c52,17 74,29 74,91 0,62 -128,150 -297,152 -34,-31 -198,-76 -280,-73 -29,-23 -46,-50 -46,-79 0,-53 55,-99 138,-126 87,54 327,81 411,35zm1637 643c126,1 206,33 249,82 -22,25 -36,73 -29,119 -54,36 -146,60 -252,60 -166,0 -300,-59 -300,-132 0,-14 5,-27 13,-39 91,-1 256,-35 318,-90zm264 -1117c94,0 177,31 231,80 -40,14 -75,39 -105,68 -59,57 -82,140 -68,220 -11,-8 -23,-15 -34,-22 -59,-49 -238,-104 -318,-118 -10,-149 173,-228 295,-228zm1313 514c162,2 245,65 266,93 -74,35 -134,93 -125,190l9 104 -118 44c-24,-64 -85,-132 -147,-160 -28,-15 -57,-28 -88,-33 -14,-5 -29,-9 -44,-12 -43,-14 -83,-11 -127,-11 7,-119 212,-216 374,-214zm-1040 265c105,0 198,23 259,60 -86,30 -138,104 -122,196 -71,-11 -214,16 -296,43 -66,-17 -191,-70 -170,-159 111,18 223,-30 270,-138 19,-2 39,-2 59,-2zm-1523 -1085c150,0 279,56 340,136 -247,-5 -449,87 -404,319 -146,-33 -314,-95 -314,-214 0,-119 169,-242 378,-242zm-3200 699l82 21 3366 -876 -85 -13 -3363 869zm3522 2213c-595,-208 -1210,-457 -1773,-662 2,-6 -11,-41 -10,-47 550,214 1190,456 1783,709zm-1963 -732c-395,-161 -869,-321 -1265,-495 457,159 921,330 1288,461 -2,5 -21,29 -23,34zm-1289 344c567,206 2862,1284 3252,1491 -446,-139 -2758,-1246 -3252,-1491zm6843 -947c-250,198 -1934,1158 -2339,1303 354,-195 2032,-1158 2339,-1303zm-2359 2269c385,-255 2039,-1308 2371,-1476 -353,286 -1914,1237 -2371,1476z"/>
 </g>
</svg>
