<?xml version="1.0" encoding="UTF-8"?>
<!DOCTYPE svg PUBLIC "-//W3C//DTD SVG 1.1//EN" "http://www.w3.org/Graphics/SVG/1.1/DTD/svg11.dtd">
<!-- Creator: CorelDRAW X6 -->
<svg xmlns="http://www.w3.org/2000/svg" xml:space="preserve" width="210mm" height="297mm" version="1.1" style="shape-rendering:geometricPrecision; text-rendering:geometricPrecision; image-rendering:optimizeQuality; fill-rule:evenodd; clip-rule:evenodd"
viewBox="0 0 21000 29700"
 xmlns:xlink="http://www.w3.org/1999/xlink">
 <defs>
  <style type="text/css">
   <![CDATA[
    .fil0 {fill:#2B2A29}
   ]]>
  </style>
 </defs>
 <g id="Layer_x0020_1">
  <metadata id="CorelCorpID_0Corel-Layer"/>
  <path class="fil0" d="M1218 9678l-1 -978 4026 0 2 4026 -985 0c47,-558 65,-1013 -348,-1393 -238,-219 -362,-204 -473,-246 -4,-62 9,-129 39,-295 120,51 930,451 1308,65 19,-91 21,-656 20,-656 -320,184 -1302,247 -1827,-203 -649,-556 -1576,-481 -1761,-320zm0 725c92,-121 1081,-334 1558,-10 -125,1246 -344,1239 -1183,710l-376 609c-12,20 691,400 813,417 791,110 1092,-360 1107,-358 574,70 404,545 404,954l-2322 0 -1 -2322zm2131 -1393c244,0 441,197 441,441 0,244 -197,441 -441,441 -244,0 -441,-197 -441,-441 0,-244 197,-441 441,-441zm2692 -311l4026 0 0 4026 -4026 0 0 -4026zm4821 0l4026 0 0 4026 -4026 0 0 -4026zm4893 0l4026 0 0 4026 -4026 0 0 -4026zm-9713 1411c193,-101 758,-320 1390,-377l63 704c-711,58 -1252,362 -1453,484m4026 -811c-188,-54 -1002,-421 -1460,-372l-64 727c831,5 1206,357 1524,469m794 482c193,101 758,320 1390,377l63 -704c-711,-58 -1252,-362 -1453,-484m4026 811c-188,54 -1002,421 -1460,372l-64 -727c831,-5 1119,-246 1524,-469m1615 1247l440 -2642 1863 469 -1920 740 -248 1468c61,39 101,108 101,185 0,122 -99,220 -220,220 -122,0 -220,-99 -220,-220 0,-117 90,-212 205,-220zm347 72l276 -53c24,70 55,120 91,150 36,29 85,44 148,44 65,0 116,-18 155,-53 27,-24 41,-54 41,-88 0,-24 -7,-44 -21,-63 -15,-18 -54,-39 -118,-65 -171,-68 -277,-123 -318,-163 -64,-62 -96,-143 -96,-244 0,-101 31,-187 93,-260 86,-101 215,-152 385,-152 135,0 238,30 307,90 69,60 113,141 132,243l-262 55c-14,-46 -36,-81 -67,-105 -42,-31 -93,-47 -152,-47 -59,0 -102,12 -128,36 -26,24 -39,52 -39,83 0,32 13,58 40,79 16,13 69,35 159,67 138,49 231,97 278,144 66,66 99,146 99,240 0,121 -42,225 -126,314 -84,88 -202,133 -355,133 -152,0 -269,-34 -352,-101 -83,-67 -139,-162 -169,-284zm1397 -916l285 0 -141 753c-17,90 -26,147 -26,169 0,37 10,68 30,95 20,26 46,40 78,40 23,0 45,-6 67,-18 22,-12 45,-30 68,-55 23,-24 44,-52 63,-84 19,-31 36,-73 52,-124 11,-38 24,-95 39,-171l113 -605 284 0 -239 1269 -265 0 28 -163c-107,130 -223,195 -350,195 -80,0 -143,-30 -188,-90 -46,-60 -69,-141 -69,-241 0,-44 12,-131 37,-262l132 -707z"/>
 </g>
</svg>
