<?xml version="1.0" encoding="UTF-8"?>
<!DOCTYPE svg PUBLIC "-//W3C//DTD SVG 1.1//EN" "http://www.w3.org/Graphics/SVG/1.1/DTD/svg11.dtd">
<!-- Creator: CorelDRAW X6 -->
<svg xmlns="http://www.w3.org/2000/svg" xml:space="preserve" width="100mm" height="100mm" version="1.1" style="shape-rendering:geometricPrecision; text-rendering:geometricPrecision; image-rendering:optimizeQuality; fill-rule:evenodd; clip-rule:evenodd"
viewBox="0 0 10000 10000"
 xmlns:xlink="http://www.w3.org/1999/xlink">
 <defs>
  <style type="text/css">
   <![CDATA[
    .str1 {stroke:black;stroke-width:50}
    .str0 {stroke:black;stroke-width:50;stroke-linejoin:round}
    .str2 {stroke:#1F1B20;stroke-width:50}
    .fil0 {fill:none}
    .fil1 {fill:black}
   ]]>
  </style>
 </defs>
 <g id="Layer_x0020_1">
  <metadata id="CorelCorpID_0Corel-Layer"/>
  <g id="_614400352">
   <path class="fil0 str0" d="M1657 4764c-252,-325 -616,-746 -885,-992 1640,-112 4725,-891 4725,-2591 1376,147 3602,2040 3825,2804 0,1168 -2089,2302 -3860,3234"/>
   <path class="fil1" d="M9326 4071c89,-1104 -2841,-2834 -3856,-2910 1227,624 2245,1472 2408,3003 63,-834 1323,-961 1449,-93z"/>
   <path class="fil1" d="M3291 6624c410,-189 979,-306 1671,-47 155,-2 89,-249 219,-249 9,0 288,45 297,50 15,80 55,94 120,102 2,0 37,8 39,8 15,72 147,35 147,-107l0 -13c0,-65 -60,-62 -72,-159 -2,-13 -15,-119 -13,-123 116,36 78,-68 138,-89 0,-112 -60,-20 -60,-132 100,-106 -95,21 -86,-205 1,-36 -33,1 -33,-86 29,0 215,22 151,-64 -33,-45 -285,-80 -314,-147 -23,-53 -91,-125 -141,-149 -58,-92 -53,-125 -117,-230l-11 -18c-69,-113 -55,-104 59,-171 86,-18 49,100 114,78 50,-145 104,81 130,-33 19,-85 87,-175 88,-178 15,-43 7,-127 -6,-164 -8,-3 -14,-1 -23,-1 124,0 84,-289 84,-403 0,-225 -13,-51 -78,-179 -7,-14 -46,-84 -47,-93 -160,13 -168,-6 -244,-101 -1,-1 23,-198 168,-78 134,15 158,79 276,15 41,-22 131,-82 171,-86 -38,39 -230,199 -54,177 42,-5 20,-70 60,-67 48,-22 64,2 74,-45 49,-17 110,-44 65,-133l-7 -13c-5,-28 -21,-44 -47,-54 -88,58 -24,-119 -149,-39 -37,8 -48,-35 -82,-33l0 -46c48,0 201,18 212,-46 6,-1 59,-160 122,-225 41,-62 308,-194 122,-273 -134,-56 -193,31 -286,-85 -19,-24 -108,17 -165,-25 -105,-77 -150,-63 -164,-72 -54,-33 -212,9 -146,-28 10,-6 84,4 99,-4 -3,-6 -10,-17 -12,-23 -163,14 60,-57 -106,19 -22,10 -66,-20 -152,36 -37,24 -56,-31 -139,36 -87,70 -176,69 -234,141 -97,121 -181,22 -304,159 -41,45 -75,53 -131,53 0,-45 -17,-19 -44,-34 7,-19 15,-30 9,-45 -86,-18 -84,58 -191,58 -5,20 -18,27 -12,45 18,6 58,-18 71,-16 -12,7 -37,-2 -33,23 -38,13 -7,130 -91,174 -65,34 5,104 -121,167 -43,49 -19,-31 -74,81 -34,68 -228,173 -258,81 -31,-94 -115,-6 -181,-59 -2,-1 -18,0 -20,0l48 0c-92,0 -59,33 -122,47 -22,106 -169,60 -239,103 -50,31 -207,158 -101,195 2,7 2,31 0,37 -24,5 -32,30 -18,53 23,-1 40,29 39,40 128,124 -41,61 -112,154 -146,191 -187,-136 -283,26 -4,7 21,122 18,184 -8,198 111,112 122,116 1,79 -128,164 14,211 40,26 39,4 121,66 -8,10 -4,7 -12,14 48,21 121,-58 106,129 -4,52 -147,38 -218,57 -20,1 -36,31 -48,64 486,598 551,1169 426,1670zm2562 -25c-53,-4 -50,-37 -50,-79 114,-40 92,82 50,79zm-516 -1726c-71,-2 -52,79 10,79 0,-21 25,-78 -10,-79zm443 -754c-70,-25 -63,-14 -63,-73 26,0 103,-4 102,40 5,8 5,11 3,18 -6,1 -41,15 -42,14zm79 509c8,-21 8,-11 5,-28 -15,-5 -9,-6 -21,-13 -49,23 -147,31 -38,99 41,26 46,-37 55,-58zm370 -612c-159,-29 -119,139 -217,-23 -11,-18 -18,-13 -38,-13 0,-153 118,57 132,-132 1,-16 138,-39 138,-39 52,150 63,-18 93,132 1,3 31,95 33,104 -48,13 -106,-22 -142,-28zm-69 1558c-32,-8 -22,-2 -36,-13 4,-9 23,-73 24,-78 194,-40 82,72 217,78 40,2 53,85 53,113 -66,-5 -52,122 -164,12 -28,-28 -30,-95 -94,-111zm-318 -833c-52,88 -60,73 -79,103 -13,72 -43,142 -120,142 0,171 85,39 46,231 -25,125 49,103 141,171 48,35 104,74 173,71 72,-120 103,-230 -3,-327 0,0 -27,-61 -34,-73 18,-31 54,-64 40,-105 -11,-2 -65,-186 -65,-186 -24,-4 -73,-71 -99,-26zm278 -132c-72,-17 -84,11 -138,-25 -17,-11 -26,27 -28,37 -39,14 -226,-182 -40,-284 108,-59 -33,-63 121,-111 65,-20 -3,-67 145,-85 168,-21 63,-8 232,54 99,37 162,140 189,150 67,109 75,144 95,265 30,181 -3,86 -108,158 -87,60 -97,-58 -249,-39 -108,13 -132,-80 -206,-114l-12 -5zm76 -2199c-38,5 -104,21 -136,10 -48,-140 77,79 99,-78 0,0 128,-40 140,18 0,0 -1,56 -1,60 -38,0 -72,-14 -103,-10zm-3489 2127l-41 -5c2,3 128,158 2,84l-19 -11c-26,-9 -37,-69 -126,-115l-11 -9c-104,-91 16,-53 -93,-146 -7,-6 -4,-20 -4,-29 19,0 39,-6 41,12 68,42 -33,104 197,94 57,-2 24,57 146,66 21,2 30,65 0,67 -28,2 -66,-4 -93,-7zm20 -357c-20,13 -54,21 -78,12 -48,-206 -15,-5 -160,-79 -6,-3 -13,-37 -13,-45 31,0 87,40 159,33 0,-37 72,-142 112,-128 26,9 24,48 19,61 0,0 -31,9 -32,11 -3,23 7,127 -7,135zm-192 -443c7,-27 7,-16 5,-33 -90,-63 -25,102 -174,47 -3,-1 -21,-1 -23,-1 0,134 30,8 25,139 -1,33 55,26 74,26 0,-35 5,-115 -2,-145 3,-1 65,13 87,5 6,-17 0,-7 8,-39z"/>
   <path class="fil0 str1" d="M2784 3422c1198,1055 2329,2195 3387,3426"/>
   <path class="fil0 str1" d="M4080 2920c1251,960 2475,1966 3691,2996"/>
   <path class="fil0 str2" d="M4967 2311c1397,676 2748,1511 4075,2434"/>
   <path class="fil0 str1" d="M5460 1574c538,186 1076,409 1614,701"/>
   <path class="fil0 str1" d="M1378 4425c2532,-444 4915,-2023 4796,-2864"/>
   <path class="fil0 str1" d="M5540 3999c866,-530 1555,-1108 1600,-1618"/>
   <path class="fil0" d="M2906 7064c3430,-1401 6487,-3278 5106,-4577"/>
   <path class="fil0 str1" d="M1193 3723c229,268 463,538 696,811"/>
   <path class="fil0 str1" d="M5456 5867c2206,-1171 3631,-2455 2605,-3421"/>
   <path class="fil1" d="M3127 5454c283,642 207,1298 -170,1464 -377,166 -1037,-151 -1320,-793 -283,-642 -83,-1367 294,-1533 377,-166 912,220 1196,862zm-26 5c271,615 198,1243 -163,1402 -361,159 -873,-210 -1145,-826 -271,-615 -198,-1243 163,-1402 361,-159 873,210 1145,826zm0 0c271,615 198,1243 -163,1402 -921,237 -1660,-1815 -982,-2227 361,-159 873,210 1145,826zm-154 1726c28,-911 2390,-973 2447,0l-7 456c-6,394 -545,714 -1217,714 -672,0 -1205,-330 -1214,-724 -3,-149 -7,-298 -10,-446zm2439 46c0,395 -543,714 -1215,714 -672,0 -1217,-320 -1217,-714 92,446 659,681 1212,684 536,3 1115,-202 1220,-684zm-1236 -253c77,0 139,37 139,82 0,45 -62,82 -139,82 -77,0 -139,-37 -139,-82 0,-45 62,-82 139,-82zm496 588l-365 -546 445 628 -688 -529 609 446zm-924 -964l500 373c-120,-46 -231,22 -223,74l-277 -447z"/>
  </g>
 </g>
</svg>
