<?xml version="1.0" encoding="UTF-8" standalone="no"?>
<!-- Created with Inkscape (http://www.inkscape.org/) -->

<svg
   xmlns:dc="http://purl.org/dc/elements/1.1/"
   xmlns:cc="http://creativecommons.org/ns#"
   xmlns:rdf="http://www.w3.org/1999/02/22-rdf-syntax-ns#"
   xmlns:svg="http://www.w3.org/2000/svg"
   xmlns="http://www.w3.org/2000/svg"
   xmlns:sodipodi="http://sodipodi.sourceforge.net/DTD/sodipodi-0.dtd"
   xmlns:inkscape="http://www.inkscape.org/namespaces/inkscape"
   width="744.09448819"
   height="1052.3622047"
   id="svg2"
   version="1.1"
   inkscape:version="0.48.2 r9819"
   sodipodi:docname="NoPhoto.svg"
   inkscape:export-filename="C:\Users\Loginova Vita\Projects\Geocaching\WinPhoneGeocaching\docs\resources\Vector files\NoPhotoWhite.png"
   inkscape:export-xdpi="90"
   inkscape:export-ydpi="90">
  <defs
     id="defs4" />
  <sodipodi:namedview
     id="base"
     pagecolor="#ffffff"
     bordercolor="#666666"
     borderopacity="1.0"
     inkscape:pageopacity="0.0"
     inkscape:pageshadow="2"
     inkscape:zoom="0.24748737"
     inkscape:cx="259.65585"
     inkscape:cy="228.95515"
     inkscape:document-units="px"
     inkscape:current-layer="layer1"
     showgrid="false"
     inkscape:window-width="1366"
     inkscape:window-height="706"
     inkscape:window-x="-8"
     inkscape:window-y="-8"
     inkscape:window-maximized="1" />
  <metadata
     id="metadata7">
    <rdf:RDF>
      <cc:Work
         rdf:about="">
        <dc:format>image/svg+xml</dc:format>
        <dc:type
           rdf:resource="http://purl.org/dc/dcmitype/StillImage" />
        <dc:title></dc:title>
      </cc:Work>
    </rdf:RDF>
  </metadata>
  <g
     inkscape:label="Layer 1"
     inkscape:groupmode="layer"
     id="layer1">
    <path
       style="fill:#ffffff;stroke:none"
       d="m 454.42503,415.85186 c -1.9072,0 -3.4426,1.53539 -3.4426,3.44257 l 0,12.58689 c 0,1.90719 1.5354,3.44257 3.4426,3.44257 l 50.1324,0 c 1.9072,0 3.4426,-1.53538 3.4426,-3.44257 l 0,-12.58689 c 0,-1.90718 -1.5354,-3.44257 -3.4426,-3.44257 l -50.1324,0 z m -201.32577,22.93612 c -19.07183,0 -34.42569,15.35386 -34.42569,34.42569 l 0,155.79779 c 0,19.07183 15.35386,34.42569 34.42569,34.42569 l 270.54297,0 c 19.0718,0 34.4257,-15.35386 34.4257,-34.42569 l 0,-155.79779 c 0,-19.07183 -15.3539,-34.42569 -34.4257,-34.42569 l -270.54297,0 z m 133.76534,37.15823 c 41.82813,0 75.73653,33.9084 75.73653,75.73653 0,41.82813 -33.9084,75.73653 -75.73653,75.73653 -41.82813,0 -75.73653,-33.9084 -75.73653,-75.73653 0,-41.82813 33.9084,-75.73653 75.73653,-75.73653 z m -0.55942,14.45879 c -33.9514,0 -61.47138,27.5415 -61.47138,61.4929 0,33.95141 27.51998,61.47138 61.47138,61.47138 33.9514,0 61.49295,-27.51997 61.49295,-61.47138 0,-33.9514 -27.54155,-61.4929 -61.49295,-61.4929 z"
       id="rect3800"
       inkscape:connector-curvature="0" />
    <path
       style="fill:#ffffff;stroke:none"
       d="m 384.8907,238.15669 c -167.36756,0 -303.031251,135.69494 -303.031251,303.0625 0,167.36756 135.663691,303.03125 303.031251,303.03125 167.36756,0 303.0625,-135.66369 303.0625,-303.03125 0,-167.36756 -135.69494,-303.0625 -303.0625,-303.0625 z m 0.0312,32.3125 c 149.51502,0 270.71875,121.20373 270.71875,270.71875 0,66.7607 -24.15828,127.86064 -64.21875,175.0625 l -50.75,-51.09375 c -3.56679,1.21875 -7.38981,1.90625 -11.375,1.90625 l -43.6875,0 77.46875,77.96875 c -47.60958,41.64866 -109.93033,66.875 -178.15625,66.875 -149.51502,0 -270.71875,-121.20373 -270.71875,-270.71875 0,-68.86958 25.70914,-131.72244 68.0625,-179.5 l 72.875,73.375 56.96875,0 L 211.2657,333.53169 c 47.00847,-39.35834 107.55004,-63.0625 173.65625,-63.0625 z"
       id="path3813"
       inkscape:connector-curvature="0" />
  </g>
</svg>
